<svg id="Capa_1" data-name="Capa 1" xmlns="http://www.w3.org/2000/svg" viewBox="0 0 231.79 207.16"><defs><style>.cls-1{fill:#ba1e22;}.cls-2{fill:#1d1d1b;}</style></defs><path class="cls-1" d="M196.33,194.41H35.46a21.17,21.17,0,0,1-18.34-31.76L97.56,23.33a21.17,21.17,0,0,1,36.67,0l80.44,139.32a21.17,21.17,0,0,1-18.34,31.76ZM115.89,26.74a7,7,0,0,0-6.21,3.59L29.24,169.65a7.17,7.17,0,0,0,6.22,10.76H196.33a7.17,7.17,0,0,0,6.21-10.76L122.11,30.33A7.05,7.05,0,0,0,115.89,26.74Z"/><path class="cls-2" d="M110.37,139.25l-1.89-34.11V65.77h14.83v39.37l-1.89,34.11Zm12.67,6.6v14.29H108.75V145.85Z"/></svg>