<svg id="Capa_1" data-name="Capa 1" xmlns="http://www.w3.org/2000/svg" viewBox="0 0 231.79 207.16"><defs><style>.cls-1{fill:#e7b405;}.cls-2{fill:#1d1d1b;}</style></defs><path class="cls-1" d="M196.33,193.93H35.46a21.18,21.18,0,0,1-18.34-31.76L97.56,22.85a21.17,21.17,0,0,1,36.67,0l80.44,139.32a21.18,21.18,0,0,1-18.34,31.76ZM115.89,26.26a7,7,0,0,0-6.21,3.59L29.24,169.17a7.18,7.18,0,0,0,6.22,10.76H196.33a7.18,7.18,0,0,0,6.21-10.76L122.11,29.85A7.05,7.05,0,0,0,115.89,26.26Z"/><path class="cls-2" d="M110.37,138.76l-1.89-34.1V65.29h14.83v39.37l-1.89,34.1ZM123,145.37v14.29H108.75V145.37Z"/></svg>