<svg id="Capa_1" data-name="Capa 1" xmlns="http://www.w3.org/2000/svg" viewBox="0 0 231.79 207.16"><defs><style>.cls-1{fill:#58b13f;}.cls-2{fill:#fff;}</style></defs><path class="cls-1" d="M83.66,29.79A83.58,83.58,0,0,0,98,23.18a92.32,92.32,0,0,0,14.34-9.09c2.2-2.34,4.46-2.46,6.81-.22.07.07.22.08.33.11a55.62,55.62,0,0,0,7.18,4.23.7.7,0,0,0,.65.36,44.84,44.84,0,0,0,6.54,3.54A48.88,48.88,0,0,0,141,25.68l.07.09.11,0a40.84,40.84,0,0,0,7,3.14,51.65,51.65,0,0,0,7.19,2.84A96.38,96.38,0,0,0,169.66,36a42.89,42.89,0,0,0,7.18,1.45,43.1,43.1,0,0,0,7.16,1,44.32,44.32,0,0,0,7.19.37,37.15,37.15,0,0,0,7.15-.27c1.09.05.56,1,.8,1.49.1,2.38.2,4.77.31,7.15l0,7.18c0,2.39,0,4.77-.05,7.16a47.7,47.7,0,0,0-.34,7.17l-.57,7.16c-.64,5.12-1.06,10.28-2,15.36-.81,4.44-1.68,8.86-2.52,13.29l-2,7.15q-2.41,7.17-4.84,14.36l-2.91,6.71a.73.73,0,0,0-.31.73l-3.53,6.91c-2.87,4.87-5.88,9.65-9.14,14.27l-1.66,2.18c-1.4,1.69-2.81,3.37-4.22,5.06-1,1.07-5.56,5.84-6.87,7.16l-3.22,3-5,4.2-2.19,1.69q-7.14,5-14.68,9.41l-6.19,3.2-.63.28-7.13,3.08a6.79,6.79,0,0,1-7.1.07l-7.24-3.06a.74.74,0,0,0-.72-.34L98,187.26c-4.91-2.89-9.72-5.94-14.37-9.24a10.36,10.36,0,0,0-2.4-1.86l-4.72-4-3.33-3.11-3.88-4-2.89-3.22-4.21-5.19a7.27,7.27,0,0,0-1.48-2c-3.21-4.64-6.14-9.45-9-14.33-2.26-4.73-4.53-9.46-6.52-14.32l-2.61-7.22a44.87,44.87,0,0,0-2-5.9,1.44,1.44,0,0,0-.29-1.25l-1.89-7.14-1.67-7.7c-1.7-9.32-2.86-18.7-3.73-28.13l-.39-7.17c-.1-2.39-.21-4.78-.31-7.16s0-4.79,0-7.18,0-4.77,0-7.16c.53-.89-.81-2.49,1.1-2.85a35,35,0,0,0,7.16.26,36.67,36.67,0,0,0,7.18-.27,41.86,41.86,0,0,0,7.16-.51,56.26,56.26,0,0,0,7.19-1c.64-.1,1.3-.16,1.93-.29a74.58,74.58,0,0,0,12.4-3.22A33.18,33.18,0,0,0,83.66,29.79Zm106.14,32c-.07-5.18,0-9.72-.26-14.25-.08-1.31-.5-1.55-1.7-1.46-10.25.75-20.22-.88-30-3.79-14.46-4.29-27.76-11.09-40.49-19a2.38,2.38,0,0,0-3.24.11A106.38,106.38,0,0,1,90.32,37.17C75.46,43.38,59.93,45.6,43.93,45c-1.46-.06-1.92.24-1.92,1.78,0,8.6.05,17.19.68,25.78a182.64,182.64,0,0,0,8,43.16c10.52,32.51,31,55.8,63.25,68.23a5.12,5.12,0,0,0,4.08,0c31-12.33,51.82-34.31,62.84-65.69C187.31,99.74,189.57,80.62,189.8,61.83Z"/><path class="cls-2" d="M189.8,61.83c-.23,18.79-2.49,37.91-9,56.35-11,31.38-31.88,53.36-62.84,65.69a5.12,5.12,0,0,1-4.08,0c-32.24-12.43-52.73-35.72-63.25-68.23a182.64,182.64,0,0,1-8-43.16c-.63-8.59-.7-17.18-.68-25.78,0-1.54.46-1.84,1.92-1.78,16,.63,31.53-1.59,46.39-7.8a106.38,106.38,0,0,0,23.77-13.78,2.38,2.38,0,0,1,3.24-.11c12.73,8,26,14.76,40.49,19,9.8,2.91,19.77,4.54,30,3.79,1.2-.09,1.62.15,1.7,1.46C189.81,52.11,189.73,56.65,189.8,61.83Zm-16.48,9.28c0-3.46,0-6.92,0-10.38,0-1.16-.32-1.5-1.53-1.42a62.61,62.61,0,0,1-19-1.89c-12.59-3.12-24-8.85-35-15.63a3.27,3.27,0,0,0-3.91,0,142.61,142.61,0,0,1-16,8.77c-12.14,5.65-24.69,9.55-38.3,8.76-1-.06-1.15.37-1.19,1.21-.79,16.73.34,33.28,5.12,49.43,7.79,26.34,24.12,45.08,49.79,55.4a5.76,5.76,0,0,0,4.48.19c21.37-8.38,36.9-22.88,46.12-44C171,105.47,173.27,88.48,173.32,71.11Z"/><path class="cls-1" d="M173.32,71.11c0,17.37-2.31,34.36-9.34,50.45-9.22,21.09-24.75,35.59-46.12,44a5.76,5.76,0,0,1-4.48-.19c-25.67-10.32-42-29.06-49.79-55.4-4.78-16.15-5.91-32.7-5.12-49.43,0-.84.15-1.27,1.19-1.21,13.61.79,26.16-3.11,38.3-8.76a142.61,142.61,0,0,0,16-8.77,3.27,3.27,0,0,1,3.91,0c10.94,6.78,22.37,12.51,35,15.63a62.61,62.61,0,0,0,19,1.89c1.21-.08,1.54.26,1.53,1.42C173.28,64.19,173.32,67.65,173.32,71.11Zm-65,60.9a268.47,268.47,0,0,1,39-57.18c-3.77,0-7.11.07-10.44,0a5.3,5.3,0,0,0-4,1.58,147.16,147.16,0,0,0-24.12,29.41c-.7,1.09-1,1.46-2.1.29a40.47,40.47,0,0,0-7-5.86A8.2,8.2,0,0,0,94,98.62c-2.37.2-4.77.15-7.16.12-1,0-1.62.19-1.9,1.33s-.39,1.78.71,2.55a61,61,0,0,1,15,15.45A91.07,91.07,0,0,1,108.27,132Z"/><path class="cls-2" d="M108.27,132a91.07,91.07,0,0,0-7.62-13.94,61,61,0,0,0-15-15.45c-1.1-.77-1-1.47-.71-2.55s.87-1.35,1.9-1.33c2.39,0,4.79.08,7.16-.12a8.2,8.2,0,0,1,5.69,1.61,40.47,40.47,0,0,1,7,5.86c1.05,1.17,1.4.8,2.1-.29a147.16,147.16,0,0,1,24.12-29.41,5.3,5.3,0,0,1,4-1.58c3.33.09,6.67,0,10.44,0A268.47,268.47,0,0,0,108.27,132Z"/></svg>